<svg width="175mm" height="175mm" version="1.1" viewBox="0 0 175 175" xmlns="http://www.w3.org/2000/svg"><defs><filter id="d" color-interpolation-filters="sRGB"><feFlood flood-color="rgb(0,0,0)" flood-opacity=".49804" result="flood"/><feComposite in="flood" in2="SourceGraphic" operator="in" result="composite1"/><feGaussianBlur in="composite1" result="blur" stdDeviation="5"/><feOffset dx="5" dy="5" result="offset"/><feComposite in="SourceGraphic" in2="offset" result="composite2"/></filter><filter id="c" color-interpolation-filters="sRGB"><feFlood flood-color="rgb(0,0,0)" flood-opacity=".49804" result="flood"/><feComposite in="flood" in2="SourceGraphic" operator="in" result="composite1"/><feGaussianBlur in="composite1" result="blur" stdDeviation="2"/><feOffset dx="1" dy="1" result="offset"/><feComposite in="SourceGraphic" in2="offset" result="composite2"/></filter><filter id="b" x="-1" width="3" color-interpolation-filters="sRGB"><feFlood flood-color="rgb(0,0,0)" flood-opacity=".49804" result="flood"/><feComposite in="flood" in2="SourceGraphic" operator="in" result="composite1"/><feGaussianBlur in="composite1" result="blur" stdDeviation="2"/><feOffset dx="1" dy="1" result="offset"/><feComposite in="SourceGraphic" in2="offset" result="composite2"/></filter><filter id="a" x="-1" width="3" color-interpolation-filters="sRGB"><feFlood flood-color="rgb(0,0,0)" flood-opacity=".49804" result="flood"/><feComposite in="flood" in2="SourceGraphic" operator="in" result="composite1"/><feGaussianBlur in="composite1" result="blur" stdDeviation="2"/><feOffset dx="1" dy="1" result="offset"/><feComposite in="SourceGraphic" in2="offset" result="composite2"/></filter></defs><circle cx="87.5" cy="87.5" r="75" fill="#00add8" filter="url(#c)" style="paint-order:stroke fill markers"/><path d="m47.5 38.5h-9v98h9" fill="none" filter="url(#b)" stroke="#fff" stroke-width="2"/><path d="m127.5 38.5h9v98h-9" fill="none" filter="url(#a)" stroke="#fff" stroke-width="2"/><g transform="matrix(.3726 -.14337 .14337 .3726 -374.81 -117.89)" fill="#fff" filter="url(#d)"><path d="m970.42 936.73 0.015-0.02c-7.079-7.08-16.065-17.402-16.065-47.163 0-0.055-3e-3 -0.101-3e-3 -0.154v-22.952c0-27.831-19.484-51.096-45.554-56.937 3e-3 -0.112 0.018-0.222 0.018-0.335 0-7.083-5.743-12.826-12.825-12.826-7.083 0-12.826 5.743-12.826 12.826 0 0.113 0.014 0.223 0.016 0.336-26.07 5.84-45.555 29.105-45.555 56.936v23.106c0 29.76-8.987 40.083-16.066 47.163l0.015 0.018c-3.277 3.04-5.34 7.37-5.34 12.193 0 9.194 7.454 16.647 16.646 16.647h126.22c9.193 0 16.646-7.453 16.646-16.647 1e-3 -4.821-2.063-9.153-5.339-12.191z"/><path d="m914.72 970.46h-37.436c-1.786 0-3.466 0.844-4.532 2.279-1.066 1.433-1.391 3.284-0.875 4.995 3.121 10.366 12.742 17.918 24.126 17.918s21.003-7.552 24.125-17.918c0.516-1.711 0.188-3.563-0.876-4.995-1.066-1.435-2.746-2.279-4.532-2.279z"/></g></svg>