<svg xmlns="http://www.w3.org/2000/svg" viewBox="0 0 222.36 139.8"><defs><linearGradient id="a" x1="68.07" x2="154.07" y1="81.49" y2="-4.51" gradientUnits="userSpaceOnUse"><stop offset="0" stop-color="#e32929"/><stop offset="1" stop-color="#ff8d30"/></linearGradient></defs><path fill="url(#a)" d="M107.8 19.24h6.54v38.49h-6.54ZM50.86 57.73h-6.55V19.24h6.55Zm25.2 4.54h6.54V77h-6.54ZM60.18 45.84h6.55v23.78h-6.55Zm31.75 0h6.54v23.78h-6.54Zm79.36-26.6h6.54v38.49h-6.54Zm-25.2-4.54h-6.55V0h6.55ZM162 31.14h-6.54V7.35H162Zm-31.74 0h-6.55V7.35h6.55Z"/><path fill="#fff" d="M146.7 130.23H135l-3 9h-6.49l13.41-38.49h8l13.41 38.49h-7.09l-10.61-31.56-5.83 16.88h8ZM29.69 100.76v25.4c0 8.91-5.77 13.64-14.9 13.64S0 135.07 0 126.16v-25.4h6.54v25.4c0 5.17 3.19 7.92 8.25 7.92s8.36-2.75 8.36-7.92v-25.4Zm21.17 11.99v26.5h-6.55v-38.49h6.11l17 26.5v-26.5H74v38.49h-6.1Zm120.43-11.99h6.54v38.49h-6.54Zm51.07 24.69c0 9-5.88 13.8-15.17 13.8h-14.52v-38.49h14.63c9.18 0 15.06 4.78 15.06 13.8Zm-6.54-10.89c0-5.28-3.3-8.14-8.52-8.14h-8.08v27.11h8c5.33 0 8.63-2.8 8.63-8.08Zm-107.51 10.12c4.34-1.6 6.93-5.28 6.93-11.55 0-8.69-5.06-12.37-12.76-12.37H88.84v38.49h6.55v-32.83h6.87c3.8 0 6.21 1.82 6.21 6.71s-2.41 6.76-6.21 6.76h-3.38l9.21 19.36h7.53Z"/></svg>